<svg width="30" height="30" viewBox="0 0 30 30" fill="none" xmlns="http://www.w3.org/2000/svg">
<g id="bus_marker" clip-path="url(#clip0_143_2)">
<path id="Vector" d="M15 30C23.2843 30 30 23.2843 30 15C30 6.71573 23.2843 0 15 0C6.71573 0 0 6.71573 0 15C0 23.2843 6.71573 30 15 30Z" fill="#DD4A15"/>
<path id="Vector_2" d="M14.9014 25.2398L7.87445 21.6524C7.86165 21.6353 7.85474 21.6146 7.85474 21.5933C7.85474 21.5719 7.86165 21.5512 7.87445 21.5341C7.88252 21.5201 7.89394 21.5082 7.90769 21.4996C7.92145 21.491 7.93711 21.486 7.95329 21.4849H22.086C22.1078 21.4873 22.1279 21.4977 22.1425 21.5141C22.157 21.5305 22.165 21.5517 22.1649 21.5736C22.1709 21.5858 22.1741 21.5993 22.1741 21.613C22.1741 21.6267 22.1709 21.6402 22.1649 21.6524L15.0985 25.2398C15.0678 25.2546 15.0341 25.2623 14.9999 25.2623C14.9658 25.2623 14.9321 25.2546 14.9014 25.2398V25.2398Z" fill="white"/>
<path id="Vector_3" d="M19.4153 4.7207H10.5454C9.85007 4.73366 9.18789 5.02035 8.70261 5.51854C8.21734 6.01673 7.94814 6.68622 7.95345 7.38168V19.0013C7.95344 19.1134 7.97568 19.2244 8.01889 19.3279C8.0621 19.4314 8.12542 19.5253 8.20517 19.6041C8.28492 19.6829 8.37952 19.7451 8.48349 19.7872C8.58747 19.8292 8.69874 19.8501 8.81087 19.8488H21.1893C21.3015 19.8501 21.4127 19.8292 21.5167 19.7872C21.6207 19.7451 21.7153 19.6829 21.795 19.6041C21.8748 19.5253 21.9381 19.4314 21.9813 19.3279C22.0245 19.2244 22.0468 19.1134 22.0467 19.0013V19.0013V7.38168C22.0493 7.03399 21.9833 6.68922 21.8523 6.36713C21.7214 6.04504 21.5281 5.75198 21.2836 5.50475C21.0391 5.25753 20.7483 5.06101 20.4276 4.92646C20.107 4.79191 19.763 4.72199 19.4153 4.7207V4.7207ZM12.5165 6.10047C12.5165 6.06649 12.53 6.0339 12.554 6.00987C12.5781 5.98584 12.6107 5.97235 12.6446 5.97235H17.3654C17.3994 5.97235 17.432 5.98584 17.456 6.00987C17.48 6.0339 17.4935 6.06649 17.4935 6.10047V6.66223C17.4949 6.67986 17.4926 6.69759 17.4868 6.71429C17.4809 6.73099 17.4717 6.7463 17.4597 6.75926C17.4476 6.77222 17.433 6.78255 17.4168 6.7896C17.4006 6.79665 17.3831 6.80026 17.3654 6.8002H12.6446C12.627 6.80026 12.6094 6.79665 12.5932 6.7896C12.577 6.78255 12.5624 6.77222 12.5504 6.75926C12.5383 6.7463 12.5291 6.73099 12.5233 6.71429C12.5175 6.69759 12.5152 6.67986 12.5165 6.66223V6.66223V6.10047ZM10.644 18.2227C10.5184 18.2246 10.3951 18.189 10.2899 18.1205C10.1847 18.0519 10.1023 17.9535 10.0534 17.8379C10.0044 17.7222 9.99108 17.5946 10.0151 17.4713C10.0391 17.3481 10.0994 17.2348 10.1882 17.146C10.277 17.0572 10.3903 16.9969 10.5136 16.9729C10.6368 16.9489 10.7644 16.9622 10.8801 17.0112C10.9957 17.0601 11.0941 17.1425 11.1627 17.2477C11.2312 17.3529 11.2668 17.4762 11.2649 17.6018C11.2649 17.7665 11.1995 17.9244 11.083 18.0408C10.9666 18.1573 10.8087 18.2227 10.644 18.2227V18.2227ZM12.5165 18.0157L12.9305 17.1879H17.0697L17.4837 18.0157H12.5165ZM19.3365 18.2227C19.2117 18.2227 19.0898 18.1857 18.9861 18.1164C18.8823 18.0471 18.8015 17.9486 18.7538 17.8333C18.706 17.718 18.6935 17.5912 18.7179 17.4689C18.7422 17.3465 18.8023 17.2341 18.8905 17.1459C18.9787 17.0577 19.0911 16.9976 19.2134 16.9733C19.3358 16.949 19.4626 16.9614 19.5779 17.0092C19.6931 17.0569 19.7916 17.1378 19.8609 17.2415C19.9303 17.3452 19.9672 17.4672 19.9672 17.5919C19.9672 17.7592 19.9008 17.9196 19.7825 18.0379C19.6642 18.1562 19.5038 18.2227 19.3365 18.2227ZM20.7951 14.9999C20.7951 15.1411 20.739 15.2765 20.6392 15.3763C20.5394 15.4761 20.4041 15.5321 20.2629 15.5321H9.72743C9.58628 15.5321 9.45092 15.4761 9.35111 15.3763C9.2513 15.2765 9.19523 15.1411 9.19523 14.9999V8.56433C9.19782 8.4249 9.25502 8.29205 9.35455 8.19437C9.45408 8.09668 9.58797 8.04197 9.72743 8.04199H20.322C20.4615 8.04197 20.5954 8.09668 20.6949 8.19437C20.7944 8.29205 20.8517 8.4249 20.8542 8.56433L20.7951 14.9999Z" fill="white"/>
<path id="Vector_4" d="M7.75633 9.69775V12.6544H7.2537C7.16655 12.6518 7.08383 12.6154 7.0231 12.5528C6.96238 12.4903 6.92843 12.4065 6.92847 12.3193V10.0328C6.92843 9.94565 6.96238 9.86188 7.0231 9.79932C7.08383 9.73675 7.16655 9.70032 7.2537 9.69775H7.75633Z" fill="white"/>
<path id="Vector_5" d="M23.0716 10.0329V12.3095C23.0716 12.3967 23.0376 12.4805 22.9769 12.5431C22.9162 12.6056 22.8335 12.6421 22.7463 12.6446H22.293V9.68799H22.7956C22.8756 9.70225 22.9477 9.74509 22.9985 9.80855C23.0492 9.87201 23.0752 9.95175 23.0716 10.0329V10.0329Z" fill="white"/>
</g>
<defs>
<clipPath id="clip0_143_2">
<rect width="30" height="30" fill="white"/>
</clipPath>
</defs>
</svg>
