<svg width="35" height="35" viewBox="0 0 35 35" fill="none" xmlns="http://www.w3.org/2000/svg">
<g id="selected_bus_marker " clip-path="url(#clip0_145_12)">
<path id="Vector" d="M17.5001 33.9069C26.5613 33.9069 33.9069 26.5613 33.9069 17.5001C33.9069 8.43884 26.5613 1.09326 17.5001 1.09326C8.43884 1.09326 1.09326 8.43884 1.09326 17.5001C1.09326 26.5613 8.43884 33.9069 17.5001 33.9069Z" stroke="#2D2F78" stroke-width="2.5" stroke-miterlimit="10"/>
<path id="Vector_2" d="M17.1502 30.566C24.5016 30.566 30.461 24.6066 30.461 17.2552C30.461 9.9038 24.5016 3.94434 17.1502 3.94434C9.79882 3.94434 3.83936 9.9038 3.83936 17.2552C3.83936 24.6066 9.79882 30.566 17.1502 30.566Z" fill="#E74625"/>
<path id="Vector_3" d="M17.0627 26.3506L10.8271 23.1672C10.8157 23.1521 10.8096 23.1337 10.8096 23.1148C10.8096 23.0958 10.8157 23.0774 10.8271 23.0623C10.8342 23.0498 10.8444 23.0393 10.8566 23.0317C10.8688 23.024 10.8827 23.0195 10.897 23.0186H23.4383C23.4576 23.0207 23.4754 23.03 23.4883 23.0445C23.5013 23.059 23.5083 23.0778 23.5082 23.0973C23.5136 23.1081 23.5164 23.1201 23.5164 23.1322C23.5164 23.1444 23.5136 23.1564 23.5082 23.1672L17.2376 26.3506C17.2103 26.3638 17.1804 26.3706 17.1501 26.3706C17.1199 26.3706 17.09 26.3638 17.0627 26.3506V26.3506Z" fill="white"/>
<path id="Vector_4" d="M21.0682 8.14209H13.1971C12.5801 8.15359 11.9925 8.40799 11.5618 8.85008C11.1312 9.29217 10.8923 9.88627 10.897 10.5034V20.8145C10.897 20.914 10.9168 21.0125 10.9551 21.1044C10.9935 21.1962 11.0496 21.2795 11.1204 21.3495C11.1912 21.4194 11.2751 21.4746 11.3674 21.5119C11.4597 21.5492 11.5584 21.5678 11.6579 21.5666H22.6424C22.7419 21.5678 22.8407 21.5492 22.9329 21.5119C23.0252 21.4746 23.1091 21.4194 23.1799 21.3495C23.2507 21.2795 23.3069 21.1962 23.3452 21.1044C23.3836 21.0125 23.4033 20.914 23.4033 20.8145V20.8145V10.5034C23.4056 10.1949 23.347 9.88893 23.2307 9.60311C23.1145 9.3173 22.943 9.05723 22.7261 8.83785C22.5091 8.61846 22.251 8.44407 21.9665 8.32468C21.682 8.20528 21.3767 8.14323 21.0682 8.14209V8.14209ZM14.9463 9.36648C14.9463 9.33632 14.9582 9.30741 14.9796 9.28608C15.0009 9.26476 15.0298 9.25278 15.06 9.25278H19.2491C19.2793 9.25278 19.3082 9.26476 19.3295 9.28608C19.3508 9.30741 19.3628 9.33632 19.3628 9.36648V9.86498C19.364 9.88063 19.362 9.89636 19.3568 9.91118C19.3516 9.926 19.3434 9.93958 19.3328 9.95109C19.3221 9.96259 19.3091 9.97175 19.2947 9.97801C19.2803 9.98426 19.2648 9.98746 19.2491 9.98742H15.06C15.0443 9.98746 15.0287 9.98426 15.0143 9.97801C14.9999 9.97175 14.987 9.96259 14.9763 9.95109C14.9656 9.93958 14.9574 9.926 14.9523 9.91118C14.9471 9.89636 14.9451 9.88063 14.9463 9.86498V9.86498V9.36648ZM13.2846 20.1236C13.1732 20.1253 13.0638 20.0938 12.9704 20.0329C12.877 19.9721 12.8039 19.8848 12.7605 19.7821C12.717 19.6795 12.7052 19.5663 12.7265 19.4569C12.7479 19.3475 12.8013 19.247 12.8801 19.1682C12.9589 19.0894 13.0595 19.0359 13.1689 19.0146C13.2782 18.9932 13.3915 19.0051 13.4941 19.0485C13.5967 19.092 13.6841 19.165 13.7449 19.2584C13.8057 19.3518 13.8373 19.4612 13.8356 19.5726C13.8356 19.7188 13.7775 19.8589 13.6742 19.9622C13.5709 20.0656 13.4307 20.1236 13.2846 20.1236V20.1236ZM14.9463 19.9399L15.3136 19.2053H18.9867L19.3541 19.9399H14.9463ZM20.9982 20.1236C20.8875 20.1236 20.7793 20.0908 20.6873 20.0293C20.5952 19.9678 20.5235 19.8804 20.4811 19.7781C20.4388 19.6758 20.4277 19.5633 20.4493 19.4547C20.4709 19.3461 20.5242 19.2464 20.6025 19.1681C20.6807 19.0898 20.7805 19.0365 20.889 19.0149C20.9976 18.9933 21.1102 19.0044 21.2124 19.0468C21.3147 19.0891 21.4021 19.1609 21.4636 19.2529C21.5251 19.345 21.558 19.4532 21.558 19.5639C21.558 19.7123 21.499 19.8547 21.394 19.9597C21.2891 20.0646 21.1467 20.1236 20.9982 20.1236ZM22.2926 17.2638C22.2926 17.389 22.2428 17.5092 22.1543 17.5977C22.0657 17.6863 21.9456 17.736 21.8203 17.736H12.4713C12.346 17.736 12.2259 17.6863 12.1373 17.5977C12.0487 17.5092 11.999 17.389 11.999 17.2638V11.5529C12.0013 11.4292 12.052 11.3113 12.1404 11.2246C12.2287 11.1379 12.3475 11.0893 12.4713 11.0894H21.8728C21.9966 11.0893 22.1154 11.1379 22.2037 11.2246C22.292 11.3113 22.3428 11.4292 22.3451 11.5529L22.2926 17.2638Z" fill="white"/>
<path id="Vector_5" d="M10.7222 12.5588V15.1825H10.2762C10.1988 15.1803 10.1254 15.1479 10.0715 15.0924C10.0176 15.0369 9.98752 14.9625 9.98755 14.8852V12.8562C9.98752 12.7788 10.0176 12.7045 10.0715 12.649C10.1254 12.5934 10.1988 12.5611 10.2762 12.5588H10.7222Z" fill="white"/>
<path id="Vector_6" d="M24.3127 12.8561V14.8764C24.3128 14.9538 24.2826 15.0281 24.2288 15.0836C24.1749 15.1391 24.1015 15.1715 24.0241 15.1737H23.6218V12.55H24.0679C24.1388 12.5627 24.2028 12.6007 24.2479 12.657C24.2929 12.7133 24.316 12.7841 24.3127 12.8561V12.8561Z" fill="white"/>
</g>
<defs>
<clipPath id="clip0_145_12">
<rect width="35" height="35" fill="white"/>
</clipPath>
</defs>
</svg>
