<?xml version="1.0" standalone="no"?>
<!DOCTYPE svg PUBLIC "-//W3C//DTD SVG 20010904//EN"
 "http://www.w3.org/TR/2001/REC-SVG-20010904/DTD/svg10.dtd">
<svg version="1.0" xmlns="http://www.w3.org/2000/svg"
 width="912.000000pt" height="912.000000pt" viewBox="0 0 912.000000 912.000000"
 preserveAspectRatio="xMidYMid meet">
<metadata>
Created by potrace 1.14, written by Peter Selinger 2001-2017
</metadata>
<g transform="translate(0.000000,912.000000) scale(0.100000,-0.100000)"
fill="#000000" stroke="none">
<path d="M2375 9112 c-64 -6 -192 -35 -265 -59 -364 -122 -658 -423 -775 -795
-60 -191 -57 -23 -57 -3058 0 -2040 3 -2788 11 -2823 32 -134 131 -243 262
-287 l63 -22 2933 0 c1613 0 2952 3 2976 7 141 24 274 150 314 297 9 33 10
5601 0 5673 -58 465 -383 860 -830 1010 -189 63 -4 59 -2412 60 -1204 0 -2203
-1 -2220 -3z"/>
<path d="M872 6777 c-18 -10 -42 -37 -52 -58 -19 -37 -20 -61 -20 -582 0 -300
3 -558 6 -575 7 -34 46 -82 81 -101 18 -9 186 -17 281 -12 l22 1 0 675 0 676
-142 -2 c-123 -1 -148 -5 -176 -22z"/>
<path d="M7939 6793 c-4 -49 0 -1333 4 -1339 3 -5 70 -7 150 -4 145 5 146 5
177 35 18 17 37 41 43 55 7 16 11 215 11 580 1 538 1 556 -19 594 -37 73 -57
81 -221 84 -79 2 -144 0 -145 -5z"/>
<path d="M1229 1749 c-5 -11 -8 -27 -5 -37 4 -10 103 -66 239 -135 127 -65
320 -163 427 -218 107 -55 332 -170 500 -256 168 -86 377 -193 465 -238 88
-45 282 -144 430 -220 149 -76 347 -177 440 -225 94 -48 283 -145 420 -215
138 -70 279 -142 315 -161 115 -59 29 -90 725 266 110 56 306 156 435 222 129
67 321 164 425 218 105 54 305 156 445 227 140 72 320 164 400 205 80 41 285
146 455 233 524 268 548 281 556 303 5 14 2 25 -9 35 -15 14 -382 15 -3335 15
-3275 0 -3317 0 -3328 -19z"/>
</g>
</svg>
